<svg width="308" height="50" viewBox="0 0 308 50" fill="none" xmlns="http://www.w3.org/2000/svg">
<path d="M43.0906 24.6162V24.7299C43.0906 31.2118 47.9956 36.6134 55 36.6134V45C48.5084 45 42.9648 42.375 39.2111 38.1864L41.8813 44.3461H32.2454L29.0915 36.3385H12.5673L9.41338 44.3461H0L3.50219 36.3006C12.6543 32.2921 22.9288 28.8995 34.0255 26.2935C34.0062 25.905 33.9868 25.5165 33.9868 25.1184V25.0047C33.9868 14.0026 42.7907 5 54.9806 5V12.8465C47.9859 12.8465 43.0712 18.1438 43.0712 24.6257L43.0906 24.6162ZM32.7001 23.1947C30.0976 23.5454 27.3017 23.9434 24.3993 24.3982L20.8294 15.3293L16.7564 25.6965C13.6025 26.2746 10.4099 26.9 7.29464 27.5823L16.9402 5.37905H24.9508L32.6904 23.2042L32.7001 23.1947Z" fill="#006341"/>
<path d="M71 50V0H75V50H71Z" fill="#43B02A"/>
<path d="M91 20.3579V4.65283H94.3301V20.3579H91Z" fill="#006341"/>
<path d="M110.896 20.3579H106.663L99.8314 8.47705H99.7347C99.7633 8.97119 99.7884 9.46891 99.8099 9.97021C99.8314 10.4715 99.8529 10.9728 99.8743 11.4741C99.8958 11.9683 99.9173 12.466 99.9388 12.9673V20.3579H96.9632V4.65283H101.163L107.985 16.4155H108.06C108.046 15.9285 108.028 15.4451 108.006 14.9653C107.985 14.4855 107.963 14.0057 107.942 13.5259C107.927 13.0461 107.913 12.5662 107.899 12.0864V4.65283H110.896V20.3579Z" fill="#006341"/>
<path d="M119.598 20.3579H116.268V7.42432H112.004V4.65283H123.863V7.42432H119.598V20.3579Z" fill="#006341"/>
<path d="M134.005 20.3579H124.96V4.65283H134.005V7.38135H128.29V10.8296H133.607V13.5581H128.29V17.6079H134.005V20.3579Z" fill="#006341"/>
<path d="M140.548 4.65283C141.973 4.65283 143.148 4.82471 144.072 5.16846C145.003 5.51221 145.694 6.03141 146.145 6.72607C146.596 7.42074 146.822 8.29801 146.822 9.35791C146.822 10.0741 146.685 10.7007 146.413 11.2378C146.141 11.7749 145.783 12.2297 145.339 12.6021C144.895 12.9744 144.415 13.2788 143.9 13.5151L148.519 20.3579H144.824L141.074 14.3315H139.302V20.3579H135.972V4.65283H140.548ZM140.312 7.38135H139.302V11.6245H140.376C141.479 11.6245 142.267 11.4419 142.74 11.0767C143.219 10.7043 143.459 10.16 143.459 9.44385C143.459 8.69906 143.201 8.16911 142.686 7.854C142.177 7.5389 141.386 7.38135 140.312 7.38135Z" fill="#006341"/>
<path d="M158.79 20.3579L157.651 16.6196H151.925L150.787 20.3579H147.199L152.742 4.58838H156.813L162.378 20.3579H158.79ZM156.856 13.8267L155.717 10.1743C155.646 9.93083 155.549 9.6193 155.427 9.23975C155.313 8.85303 155.195 8.46273 155.073 8.06885C154.958 7.66781 154.865 7.32048 154.794 7.02686C154.722 7.32048 154.622 7.68571 154.493 8.12256C154.371 8.55225 154.253 8.96045 154.138 9.34717C154.024 9.73389 153.941 10.0096 153.891 10.1743L152.763 13.8267H156.856Z" fill="#006341"/>
<path d="M169.716 7.19873C169.078 7.19873 168.513 7.32406 168.018 7.57471C167.531 7.8182 167.12 8.17269 166.783 8.63818C166.454 9.10368 166.203 9.66585 166.031 10.3247C165.859 10.9836 165.773 11.7248 165.773 12.5483C165.773 13.6584 165.909 14.6073 166.182 15.395C166.461 16.1756 166.891 16.7736 167.471 17.189C168.051 17.5972 168.799 17.8013 169.716 17.8013C170.353 17.8013 170.99 17.7297 171.628 17.5864C172.272 17.4432 172.971 17.2391 173.723 16.9741V19.7671C173.028 20.0535 172.344 20.2576 171.671 20.3794C170.998 20.5083 170.242 20.5728 169.404 20.5728C167.786 20.5728 166.454 20.2397 165.408 19.5737C164.37 18.9006 163.6 17.9624 163.099 16.7593C162.597 15.549 162.347 14.1382 162.347 12.5269C162.347 11.3381 162.508 10.2495 162.83 9.26123C163.152 8.27295 163.625 7.41715 164.248 6.69385C164.871 5.97054 165.641 5.41195 166.558 5.01807C167.474 4.62419 168.527 4.42725 169.716 4.42725C170.496 4.42725 171.277 4.52751 172.058 4.72803C172.845 4.92139 173.597 5.18994 174.313 5.53369L173.239 8.24072C172.652 7.96143 172.061 7.71794 171.467 7.51025C170.872 7.30257 170.289 7.19873 169.716 7.19873Z" fill="#006341"/>
<path d="M181.813 20.3579H178.483V7.42432H174.218V4.65283H186.077V7.42432H181.813V20.3579Z" fill="#006341"/>
<path d="M187.174 20.3579V4.65283H190.504V20.3579H187.174Z" fill="#006341"/>
<path d="M205.459 4.65283L200.12 20.3579H196.489L191.161 4.65283H194.523L197.477 13.9985C197.528 14.1561 197.61 14.4533 197.724 14.8901C197.839 15.3198 197.954 15.7782 198.068 16.2651C198.19 16.745 198.272 17.1424 198.315 17.4575C198.358 17.1424 198.433 16.745 198.541 16.2651C198.655 15.7853 198.766 15.3306 198.874 14.9009C198.988 14.464 199.071 14.1632 199.121 13.9985L202.097 4.65283H205.459Z" fill="#006341"/>
<path d="M215.171 20.3579H206.126V4.65283H215.171V7.38135H209.456V10.8296H214.774V13.5581H209.456V17.6079H215.171V20.3579Z" fill="#006341"/>
<path d="M97.6494 45.3579L93.8682 33.0366H93.7715C93.7858 33.3302 93.8073 33.7743 93.8359 34.3687C93.8717 34.9559 93.904 35.5825 93.9326 36.2485C93.9613 36.9146 93.9756 37.5161 93.9756 38.0532V45.3579H91V29.6528H95.5332L99.25 41.6626H99.3145L103.257 29.6528H107.79V45.3579H104.686V37.9243C104.686 37.4302 104.693 36.8608 104.707 36.2163C104.729 35.5718 104.754 34.9595 104.782 34.3794C104.811 33.7922 104.832 33.3517 104.847 33.0581H104.75L100.7 45.3579H97.6494Z" fill="#006341"/>
<path d="M119.479 45.3579H110.434V29.6528H119.479V32.3813H113.764V35.8296H119.081V38.5581H113.764V42.6079H119.479V45.3579Z" fill="#006341"/>
<path d="M134.476 37.355C134.476 39.1239 134.136 40.6027 133.456 41.7915C132.783 42.9731 131.805 43.8647 130.523 44.4663C129.241 45.0607 127.698 45.3579 125.893 45.3579H121.446V29.6528H126.377C128.024 29.6528 129.452 29.9465 130.663 30.5337C131.873 31.1138 132.811 31.9767 133.477 33.1226C134.143 34.2612 134.476 35.672 134.476 37.355ZM131.017 37.4409C131.017 36.2808 130.845 35.3283 130.502 34.5835C130.165 33.8315 129.664 33.2765 128.998 32.9185C128.339 32.5604 127.522 32.3813 126.548 32.3813H124.776V42.6079H126.205C127.83 42.6079 129.037 42.1746 129.825 41.3081C130.62 40.4416 131.017 39.1525 131.017 37.4409Z" fill="#006341"/>
<path d="M136.411 45.3579V29.6528H139.741V45.3579H136.411Z" fill="#006341"/>
<path d="M151.989 45.3579L150.85 41.6196H145.124L143.986 45.3579H140.398L145.941 29.5884H150.012L155.576 45.3579H151.989ZM150.055 38.8267L148.916 35.1743C148.845 34.9308 148.748 34.6193 148.626 34.2397C148.512 33.853 148.394 33.4627 148.272 33.0688C148.157 32.6678 148.064 32.3205 147.992 32.0269C147.921 32.3205 147.821 32.6857 147.692 33.1226C147.57 33.5522 147.452 33.9604 147.337 34.3472C147.223 34.7339 147.14 35.0096 147.09 35.1743L145.962 38.8267H150.055Z" fill="#006341"/>
<path d="M167.288 45.3579L163.507 33.0366H163.41C163.424 33.3302 163.446 33.7743 163.475 34.3687C163.51 34.9559 163.543 35.5825 163.571 36.2485C163.6 36.9146 163.614 37.5161 163.614 38.0532V45.3579H160.639V29.6528H165.172L168.889 41.6626H168.953L172.895 29.6528H177.429V45.3579H174.324V37.9243C174.324 37.4302 174.331 36.8608 174.346 36.2163C174.367 35.5718 174.392 34.9595 174.421 34.3794C174.449 33.7922 174.471 33.3517 174.485 33.0581H174.389L170.339 45.3579H167.288Z" fill="#006341"/>
<path d="M189.687 45.3579L188.548 41.6196H182.823L181.684 45.3579H178.096L183.639 29.5884H187.71L193.275 45.3579H189.687ZM187.753 38.8267L186.614 35.1743C186.543 34.9308 186.446 34.6193 186.324 34.2397C186.21 33.853 186.092 33.4627 185.97 33.0688C185.855 32.6678 185.762 32.3205 185.691 32.0269C185.619 32.3205 185.519 32.6857 185.39 33.1226C185.268 33.5522 185.15 33.9604 185.035 34.3472C184.921 34.7339 184.838 35.0096 184.788 35.1743L183.66 38.8267H187.753Z" fill="#006341"/>
<path d="M207.875 45.3579H203.642L196.81 33.4771H196.713C196.742 33.9712 196.767 34.4689 196.789 34.9702C196.81 35.4715 196.832 35.9728 196.853 36.4741C196.875 36.9683 196.896 37.466 196.918 37.9673V45.3579H193.942V29.6528H198.142L204.963 41.4155H205.039C205.024 40.9285 205.006 40.4451 204.985 39.9653C204.963 39.4855 204.942 39.0057 204.92 38.5259C204.906 38.0461 204.892 37.5662 204.878 37.0864V29.6528H207.875V45.3579Z" fill="#006341"/>
<path d="M220.133 45.3579L218.994 41.6196H213.268L212.13 45.3579H208.542L214.085 29.5884H218.156L223.721 45.3579H220.133ZM218.199 38.8267L217.06 35.1743C216.989 34.9308 216.892 34.6193 216.77 34.2397C216.656 33.853 216.538 33.4627 216.416 33.0688C216.301 32.6678 216.208 32.3205 216.137 32.0269C216.065 32.3205 215.965 32.6857 215.836 33.1226C215.714 33.5522 215.596 33.9604 215.481 34.3472C215.367 34.7339 215.284 35.0096 215.234 35.1743L214.106 38.8267H218.199Z" fill="#006341"/>
<path d="M230.35 36.5386H236.58V44.6812C235.757 44.9533 234.901 45.1717 234.013 45.3364C233.125 45.494 232.119 45.5728 230.994 45.5728C229.433 45.5728 228.108 45.2648 227.02 44.6489C225.931 44.033 225.104 43.1235 224.538 41.9204C223.973 40.7173 223.69 39.2384 223.69 37.4839C223.69 35.8368 224.005 34.4116 224.635 33.2085C225.272 32.0054 226.2 31.0744 227.417 30.4155C228.642 29.7567 230.135 29.4272 231.897 29.4272C232.727 29.4272 233.547 29.5168 234.357 29.6958C235.166 29.8748 235.9 30.1076 236.559 30.394L235.452 33.0581C234.973 32.8146 234.425 32.6105 233.809 32.4458C233.193 32.2811 232.548 32.1987 231.875 32.1987C230.908 32.1987 230.067 32.4207 229.351 32.8647C228.642 33.3088 228.09 33.9318 227.696 34.7339C227.31 35.5288 227.116 36.467 227.116 37.5483C227.116 38.5724 227.256 39.4819 227.535 40.2769C227.815 41.0646 228.255 41.6841 228.857 42.1353C229.458 42.5793 230.242 42.8013 231.209 42.8013C231.682 42.8013 232.079 42.7798 232.402 42.7368C232.731 42.6867 233.039 42.6366 233.325 42.5864V39.3101H230.35V36.5386Z" fill="#006341"/>
<path d="M248.054 45.3579H239.009V29.6528H248.054V32.3813H242.339V35.8296H247.657V38.5581H242.339V42.6079H248.054V45.3579Z" fill="#006341"/>
<path d="M256.671 45.3579L252.889 33.0366H252.793C252.807 33.3302 252.829 33.7743 252.857 34.3687C252.893 34.9559 252.925 35.5825 252.954 36.2485C252.983 36.9146 252.997 37.5161 252.997 38.0532V45.3579H250.021V29.6528H254.555L258.271 41.6626H258.336L262.278 29.6528H266.811V45.3579H263.707V37.9243C263.707 37.4302 263.714 36.8608 263.728 36.2163C263.75 35.5718 263.775 34.9595 263.804 34.3794C263.832 33.7922 263.854 33.3517 263.868 33.0581H263.771L259.722 45.3579H256.671Z" fill="#006341"/>
<path d="M278.5 45.3579H269.455V29.6528H278.5V32.3813H272.785V35.8296H278.103V38.5581H272.785V42.6079H278.5V45.3579Z" fill="#006341"/>
<path d="M294.4 45.3579H290.167L283.335 33.4771H283.239C283.267 33.9712 283.292 34.4689 283.314 34.9702C283.335 35.4715 283.357 35.9728 283.378 36.4741C283.4 36.9683 283.421 37.466 283.443 37.9673V45.3579H280.467V29.6528H284.667L291.489 41.4155H291.564C291.55 40.9285 291.532 40.4451 291.51 39.9653C291.489 39.4855 291.467 39.0057 291.446 38.5259C291.431 38.0461 291.417 37.5662 291.403 37.0864V29.6528H294.4V45.3579Z" fill="#006341"/>
<path d="M303.102 45.3579H299.772V32.4243H295.508V29.6528H307.367V32.4243H303.102V45.3579Z" fill="#006341"/>
</svg>
