<svg width="291" height="52" viewBox="0 0 291 52" fill="none" xmlns="http://www.w3.org/2000/svg">
<path d="M43.0906 24.6162V24.7299C43.0906 31.2118 47.9956 36.6134 55 36.6134V45C48.5084 45 42.9648 42.375 39.2111 38.1864L41.8813 44.3461H32.2454L29.0915 36.3385H12.5673L9.41338 44.3461H0L3.50219 36.3006C12.6543 32.2921 22.9288 28.8995 34.0255 26.2935C34.0062 25.905 33.9868 25.5165 33.9868 25.1184V25.0047C33.9868 14.0026 42.7907 5 54.9806 5V12.8465C47.9859 12.8465 43.0712 18.1438 43.0712 24.6257L43.0906 24.6162ZM32.7001 23.1947C30.0976 23.5454 27.3017 23.9434 24.3993 24.3982L20.8294 15.3293L16.7564 25.6965C13.6025 26.2746 10.4099 26.9 7.29464 27.5823L16.9402 5.37905H24.9508L32.6904 23.2042L32.7001 23.1947Z" fill="#006341"/>
<path d="M71 50V0H75V50H71Z" fill="#69C055"/>
<path d="M92.9766 21V5.29492H96.3066V21H92.9766ZM105.503 8.76465C106.785 8.76465 107.816 9.11556 108.597 9.81738C109.378 10.512 109.768 11.6292 109.768 13.1689V21H106.492V13.9854C106.492 13.126 106.334 12.4779 106.019 12.041C105.711 11.6042 105.224 11.3857 104.558 11.3857C103.555 11.3857 102.871 11.7259 102.506 12.4062C102.141 13.0866 101.958 14.0677 101.958 15.3496V21H98.682V8.99023H101.185L101.625 10.5264H101.808C102.066 10.111 102.384 9.77441 102.764 9.5166C103.151 9.25879 103.577 9.06901 104.042 8.94727C104.515 8.82552 105.002 8.76465 105.503 8.76465ZM116.881 18.6045C117.239 18.6045 117.586 18.5687 117.923 18.4971C118.266 18.4255 118.606 18.3359 118.943 18.2285V20.667C118.592 20.8245 118.155 20.9535 117.632 21.0537C117.117 21.1611 116.551 21.2148 115.935 21.2148C115.219 21.2148 114.575 21.1003 114.002 20.8711C113.436 20.6348 112.988 20.2301 112.659 19.6572C112.337 19.0771 112.175 18.2715 112.175 17.2402V11.4502H110.607V10.0645L112.412 8.96875L113.357 6.43359H115.452V8.99023H118.814V11.4502H115.452V17.2402C115.452 17.6986 115.581 18.0423 115.839 18.2715C116.103 18.4935 116.451 18.6045 116.881 18.6045ZM125.014 8.76465C126.124 8.76465 127.08 8.97949 127.882 9.40918C128.684 9.83171 129.303 10.4476 129.74 11.2568C130.177 12.0661 130.395 13.0544 130.395 14.2217V15.8115H122.65C122.686 16.7354 122.962 17.4622 123.477 17.9922C124 18.515 124.724 18.7764 125.647 18.7764C126.414 18.7764 127.116 18.6976 127.753 18.54C128.39 18.3825 129.046 18.1462 129.719 17.8311V20.3662C129.124 20.6598 128.501 20.8747 127.85 21.0107C127.205 21.1468 126.421 21.2148 125.497 21.2148C124.294 21.2148 123.227 20.9928 122.296 20.5488C121.372 20.1048 120.645 19.4281 120.115 18.5186C119.592 17.609 119.331 16.4632 119.331 15.0811C119.331 13.6774 119.567 12.5101 120.04 11.5791C120.52 10.641 121.186 9.93913 122.038 9.47363C122.89 9.00098 123.882 8.76465 125.014 8.76465ZM125.035 11.0957C124.398 11.0957 123.868 11.2998 123.445 11.708C123.03 12.1162 122.79 12.7572 122.726 13.6309H127.323C127.316 13.1439 127.227 12.7106 127.055 12.3311C126.89 11.9515 126.639 11.6507 126.303 11.4287C125.973 11.2067 125.551 11.0957 125.035 11.0957ZM138.443 8.76465C138.607 8.76465 138.797 8.77539 139.012 8.79688C139.234 8.8112 139.413 8.83268 139.549 8.86133L139.302 11.9336C139.195 11.8978 139.041 11.8727 138.84 11.8584C138.647 11.8369 138.478 11.8262 138.335 11.8262C137.913 11.8262 137.501 11.8799 137.1 11.9873C136.706 12.0947 136.352 12.2702 136.036 12.5137C135.721 12.75 135.471 13.0651 135.284 13.459C135.105 13.8457 135.016 14.3219 135.016 14.8877V21H131.74V8.99023H134.221L134.704 11.0098H134.866C135.102 10.6016 135.395 10.2292 135.746 9.89258C136.104 9.54883 136.509 9.27669 136.96 9.07617C137.419 8.86849 137.913 8.76465 138.443 8.76465ZM145.33 8.74316C146.941 8.74316 148.176 9.09408 149.036 9.7959C149.895 10.4977 150.325 11.5648 150.325 12.9971V21H148.037L147.403 19.3672H147.317C146.973 19.7969 146.622 20.1478 146.264 20.4199C145.906 20.6921 145.494 20.8926 145.029 21.0215C144.563 21.1504 143.998 21.2148 143.332 21.2148C142.623 21.2148 141.985 21.0788 141.42 20.8066C140.861 20.5345 140.421 20.1191 140.098 19.5605C139.776 18.9948 139.615 18.2786 139.615 17.4121C139.615 16.1374 140.062 15.1992 140.958 14.5977C141.853 13.9889 143.196 13.6523 144.986 13.5879L147.07 13.5234V12.9971C147.07 12.3669 146.905 11.9049 146.576 11.6113C146.246 11.3177 145.788 11.1709 145.201 11.1709C144.621 11.1709 144.051 11.2533 143.493 11.418C142.934 11.5827 142.376 11.7904 141.817 12.041L140.732 9.82812C141.369 9.49154 142.082 9.22656 142.87 9.0332C143.665 8.83984 144.485 8.74316 145.33 8.74316ZM147.07 15.4355L145.802 15.4785C144.742 15.5072 144.005 15.6969 143.589 16.0479C143.181 16.3988 142.977 16.8607 142.977 17.4336C142.977 17.9349 143.124 18.293 143.418 18.5078C143.711 18.7155 144.094 18.8193 144.567 18.8193C145.269 18.8193 145.86 18.6117 146.339 18.1963C146.826 17.7809 147.07 17.1901 147.07 16.4238V15.4355ZM157.266 21.2148C156.077 21.2148 155.063 21 154.226 20.5703C153.388 20.1335 152.75 19.4603 152.313 18.5508C151.877 17.6413 151.658 16.4775 151.658 15.0596C151.658 13.5915 151.905 12.3955 152.399 11.4717C152.901 10.5407 153.592 9.85677 154.473 9.41992C155.361 8.98307 156.388 8.76465 157.556 8.76465C158.386 8.76465 159.102 8.84701 159.704 9.01172C160.313 9.16927 160.843 9.35905 161.294 9.58105L160.327 12.1162C159.811 11.9085 159.332 11.7402 158.888 11.6113C158.444 11.4753 158 11.4072 157.556 11.4072C156.983 11.4072 156.506 11.5433 156.127 11.8154C155.747 12.0804 155.464 12.4814 155.278 13.0186C155.092 13.5557 154.999 14.2288 154.999 15.0381C154.999 15.833 155.099 16.4919 155.3 17.0146C155.5 17.5374 155.79 17.9277 156.17 18.1855C156.549 18.4362 157.011 18.5615 157.556 18.5615C158.236 18.5615 158.841 18.472 159.371 18.293C159.901 18.1068 160.417 17.849 160.918 17.5195V20.3232C160.417 20.6383 159.89 20.8639 159.339 21C158.795 21.1432 158.103 21.2148 157.266 21.2148ZM167.45 18.6045C167.809 18.6045 168.156 18.5687 168.492 18.4971C168.836 18.4255 169.176 18.3359 169.513 18.2285V20.667C169.162 20.8245 168.725 20.9535 168.202 21.0537C167.687 21.1611 167.121 21.2148 166.505 21.2148C165.789 21.2148 165.144 21.1003 164.572 20.8711C164.006 20.6348 163.558 20.2301 163.229 19.6572C162.906 19.0771 162.745 18.2715 162.745 17.2402V11.4502H161.177V10.0645L162.982 8.96875L163.927 6.43359H166.022V8.99023H169.384V11.4502H166.022V17.2402C166.022 17.6986 166.151 18.0423 166.408 18.2715C166.673 18.4935 167.021 18.6045 167.45 18.6045ZM173.908 8.99023V21H170.631V8.99023H173.908ZM172.275 4.28516C172.762 4.28516 173.181 4.39974 173.532 4.62891C173.883 4.85091 174.058 5.26986 174.058 5.88574C174.058 6.49447 173.883 6.91699 173.532 7.15332C173.181 7.38249 172.762 7.49707 172.275 7.49707C171.781 7.49707 171.358 7.38249 171.007 7.15332C170.664 6.91699 170.492 6.49447 170.492 5.88574C170.492 5.26986 170.664 4.85091 171.007 4.62891C171.358 4.39974 171.781 4.28516 172.275 4.28516ZM178.893 21L174.317 8.99023H177.744L180.064 15.833C180.193 16.234 180.294 16.6566 180.365 17.1006C180.444 17.5446 180.498 17.9421 180.526 18.293H180.612C180.634 17.9134 180.684 17.5088 180.763 17.0791C180.849 16.6494 180.96 16.234 181.096 15.833L183.405 8.99023H186.832L182.256 21H178.893ZM192.194 8.76465C193.304 8.76465 194.26 8.97949 195.062 9.40918C195.864 9.83171 196.483 10.4476 196.92 11.2568C197.357 12.0661 197.575 13.0544 197.575 14.2217V15.8115H189.83C189.866 16.7354 190.142 17.4622 190.657 17.9922C191.18 18.515 191.904 18.7764 192.827 18.7764C193.594 18.7764 194.295 18.6976 194.933 18.54C195.57 18.3825 196.225 18.1462 196.899 17.8311V20.3662C196.304 20.6598 195.681 20.8747 195.029 21.0107C194.385 21.1468 193.601 21.2148 192.677 21.2148C191.474 21.2148 190.407 20.9928 189.476 20.5488C188.552 20.1048 187.825 19.4281 187.295 18.5186C186.772 17.609 186.511 16.4632 186.511 15.0811C186.511 13.6774 186.747 12.5101 187.22 11.5791C187.7 10.641 188.366 9.93913 189.218 9.47363C190.07 9.00098 191.062 8.76465 192.194 8.76465ZM192.215 11.0957C191.578 11.0957 191.048 11.2998 190.625 11.708C190.21 12.1162 189.97 12.7572 189.905 13.6309H194.503C194.496 13.1439 194.406 12.7106 194.235 12.3311C194.07 11.9515 193.819 11.6507 193.483 11.4287C193.153 11.2067 192.731 11.0957 192.215 11.0957ZM99.626 46L95.8447 33.6787H95.748C95.7624 33.9723 95.7839 34.4163 95.8125 35.0107C95.8483 35.598 95.8805 36.2246 95.9092 36.8906C95.9378 37.5566 95.9521 38.1582 95.9521 38.6953V46H92.9766V30.2949H97.5098L101.227 42.3047H101.291L105.233 30.2949H109.767V46H106.662V38.5664C106.662 38.0723 106.669 37.5029 106.684 36.8584C106.705 36.2139 106.73 35.6016 106.759 35.0215C106.787 34.4342 106.809 33.9938 106.823 33.7002H106.727L102.677 46H99.626ZM117.105 33.7646C118.215 33.7646 119.171 33.9795 119.973 34.4092C120.775 34.8317 121.395 35.4476 121.831 36.2568C122.268 37.0661 122.487 38.0544 122.487 39.2217V40.8115H114.742C114.777 41.7354 115.053 42.4622 115.569 42.9922C116.091 43.515 116.815 43.7764 117.739 43.7764C118.505 43.7764 119.207 43.6976 119.844 43.54C120.481 43.3825 121.137 43.1462 121.81 42.8311V45.3662C121.215 45.6598 120.592 45.8747 119.941 46.0107C119.296 46.1468 118.512 46.2148 117.588 46.2148C116.385 46.2148 115.318 45.9928 114.387 45.5488C113.463 45.1048 112.736 44.4281 112.206 43.5186C111.684 42.609 111.422 41.4632 111.422 40.0811C111.422 38.6774 111.659 37.5101 112.131 36.5791C112.611 35.641 113.277 34.9391 114.129 34.4736C114.981 34.001 115.973 33.7646 117.105 33.7646ZM117.126 36.0957C116.489 36.0957 115.959 36.2998 115.536 36.708C115.121 37.1162 114.881 37.7572 114.817 38.6309H119.414C119.407 38.1439 119.318 37.7106 119.146 37.3311C118.981 36.9515 118.73 36.6507 118.394 36.4287C118.064 36.2067 117.642 36.0957 117.126 36.0957ZM127.633 46.2148C126.294 46.2148 125.202 45.6921 124.357 44.6465C123.519 43.5938 123.1 42.0505 123.1 40.0166C123.1 37.9613 123.526 36.4072 124.379 35.3545C125.231 34.2946 126.344 33.7646 127.719 33.7646C128.292 33.7646 128.797 33.8434 129.234 34.001C129.671 34.1585 130.047 34.3698 130.362 34.6348C130.684 34.8997 130.956 35.1969 131.178 35.5264H131.286C131.243 35.2972 131.189 34.9606 131.125 34.5166C131.067 34.0654 131.039 33.6035 131.039 33.1309V29.2852H134.326V46H131.812L131.178 44.4424H131.039C130.831 44.7718 130.57 45.0726 130.255 45.3447C129.947 45.6097 129.578 45.821 129.148 45.9785C128.718 46.1361 128.214 46.2148 127.633 46.2148ZM128.783 43.6045C129.678 43.6045 130.308 43.3395 130.673 42.8096C131.046 42.2725 131.243 41.4668 131.264 40.3926V40.0381C131.264 38.8708 131.085 37.9792 130.727 37.3633C130.369 36.7402 129.703 36.4287 128.729 36.4287C128.006 36.4287 127.44 36.7402 127.032 37.3633C126.624 37.9863 126.42 38.8851 126.42 40.0596C126.42 41.234 126.624 42.1185 127.032 42.7129C127.447 43.3073 128.031 43.6045 128.783 43.6045ZM139.709 33.9902V46H136.433V33.9902H139.709ZM138.076 29.2852C138.563 29.2852 138.982 29.3997 139.333 29.6289C139.684 29.8509 139.859 30.2699 139.859 30.8857C139.859 31.4945 139.684 31.917 139.333 32.1533C138.982 32.3825 138.563 32.4971 138.076 32.4971C137.582 32.4971 137.159 32.3825 136.809 32.1533C136.465 31.917 136.293 31.4945 136.293 30.8857C136.293 30.2699 136.465 29.8509 136.809 29.6289C137.159 29.3997 137.582 29.2852 138.076 29.2852ZM146.757 33.7432C148.368 33.7432 149.604 34.0941 150.463 34.7959C151.323 35.4977 151.752 36.5648 151.752 37.9971V46H149.464L148.83 44.3672H148.744C148.401 44.7969 148.05 45.1478 147.692 45.4199C147.334 45.6921 146.922 45.8926 146.456 46.0215C145.991 46.1504 145.425 46.2148 144.759 46.2148C144.05 46.2148 143.413 46.0788 142.847 45.8066C142.288 45.5345 141.848 45.1191 141.526 44.5605C141.203 43.9948 141.042 43.2786 141.042 42.4121C141.042 41.1374 141.49 40.1992 142.385 39.5977C143.28 38.9889 144.623 38.6523 146.413 38.5879L148.497 38.5234V37.9971C148.497 37.3669 148.333 36.9049 148.003 36.6113C147.674 36.3177 147.215 36.1709 146.628 36.1709C146.048 36.1709 145.479 36.2533 144.92 36.418C144.362 36.5827 143.803 36.7904 143.244 37.041L142.159 34.8281C142.797 34.4915 143.509 34.2266 144.297 34.0332C145.092 33.8398 145.912 33.7432 146.757 33.7432ZM148.497 40.4355L147.23 40.4785C146.17 40.5072 145.432 40.6969 145.017 41.0479C144.609 41.3988 144.405 41.8607 144.405 42.4336C144.405 42.9349 144.551 43.293 144.845 43.5078C145.139 43.7155 145.522 43.8193 145.994 43.8193C146.696 43.8193 147.287 43.6117 147.767 43.1963C148.254 42.7809 148.497 42.1901 148.497 41.4238V40.4355ZM165.118 46L161.337 33.6787H161.24C161.254 33.9723 161.276 34.4163 161.305 35.0107C161.34 35.598 161.373 36.2246 161.401 36.8906C161.43 37.5566 161.444 38.1582 161.444 38.6953V46H158.469V30.2949H163.002L166.719 42.3047H166.783L170.726 30.2949H175.259V46H172.154V38.5664C172.154 38.0723 172.161 37.5029 172.176 36.8584C172.197 36.2139 172.222 35.6016 172.251 35.0215C172.28 34.4342 172.301 33.9938 172.315 33.7002H172.219L168.169 46H165.118ZM182.565 33.7432C184.176 33.7432 185.411 34.0941 186.271 34.7959C187.13 35.4977 187.56 36.5648 187.56 37.9971V46H185.272L184.638 44.3672H184.552C184.208 44.7969 183.857 45.1478 183.499 45.4199C183.141 45.6921 182.729 45.8926 182.264 46.0215C181.798 46.1504 181.233 46.2148 180.567 46.2148C179.858 46.2148 179.22 46.0788 178.655 45.8066C178.096 45.5345 177.656 45.1191 177.333 44.5605C177.011 43.9948 176.85 43.2786 176.85 42.4121C176.85 41.1374 177.297 40.1992 178.193 39.5977C179.088 38.9889 180.431 38.6523 182.221 38.5879L184.305 38.5234V37.9971C184.305 37.3669 184.14 36.9049 183.811 36.6113C183.481 36.3177 183.023 36.1709 182.436 36.1709C181.856 36.1709 181.286 36.2533 180.728 36.418C180.169 36.5827 179.611 36.7904 179.052 37.041L177.967 34.8281C178.604 34.4915 179.317 34.2266 180.105 34.0332C180.9 33.8398 181.72 33.7432 182.565 33.7432ZM184.305 40.4355L183.037 40.4785C181.977 40.5072 181.24 40.6969 180.824 41.0479C180.416 41.3988 180.212 41.8607 180.212 42.4336C180.212 42.9349 180.359 43.293 180.653 43.5078C180.946 43.7155 181.329 43.8193 181.802 43.8193C182.504 43.8193 183.095 43.6117 183.574 43.1963C184.061 42.7809 184.305 42.1901 184.305 41.4238V40.4355ZM196.445 33.7646C197.727 33.7646 198.758 34.1156 199.539 34.8174C200.319 35.512 200.71 36.6292 200.71 38.1689V46H197.433V38.9854C197.433 38.126 197.276 37.4779 196.961 37.041C196.653 36.6042 196.166 36.3857 195.5 36.3857C194.497 36.3857 193.813 36.7259 193.448 37.4062C193.083 38.0866 192.9 39.0677 192.9 40.3496V46H189.624V33.9902H192.127L192.567 35.5264H192.75C193.007 35.111 193.326 34.7744 193.706 34.5166C194.092 34.2588 194.518 34.069 194.984 33.9473C195.457 33.8255 195.944 33.7646 196.445 33.7646ZM207.683 33.7432C209.294 33.7432 210.529 34.0941 211.389 34.7959C212.248 35.4977 212.678 36.5648 212.678 37.9971V46H210.39L209.756 44.3672H209.67C209.326 44.7969 208.975 45.1478 208.617 45.4199C208.259 45.6921 207.847 45.8926 207.382 46.0215C206.916 46.1504 206.35 46.2148 205.684 46.2148C204.975 46.2148 204.338 46.0788 203.772 45.8066C203.214 45.5345 202.773 45.1191 202.451 44.5605C202.129 43.9948 201.968 43.2786 201.968 42.4121C201.968 41.1374 202.415 40.1992 203.31 39.5977C204.206 38.9889 205.548 38.6523 207.339 38.5879L209.423 38.5234V37.9971C209.423 37.3669 209.258 36.9049 208.929 36.6113C208.599 36.3177 208.141 36.1709 207.554 36.1709C206.974 36.1709 206.404 36.2533 205.846 36.418C205.287 36.5827 204.728 36.7904 204.17 37.041L203.085 34.8281C203.722 34.4915 204.435 34.2266 205.223 34.0332C206.017 33.8398 206.837 33.7432 207.683 33.7432ZM209.423 40.4355L208.155 40.4785C207.095 40.5072 206.358 40.6969 205.942 41.0479C205.534 41.3988 205.33 41.8607 205.33 42.4336C205.33 42.9349 205.477 43.293 205.77 43.5078C206.064 43.7155 206.447 43.8193 206.92 43.8193C207.622 43.8193 208.212 43.6117 208.692 43.1963C209.179 42.7809 209.423 42.1901 209.423 41.4238V40.4355ZM218.254 51.2852C216.578 51.2852 215.296 50.9915 214.408 50.4043C213.528 49.8242 213.087 49.0078 213.087 47.9551C213.087 47.2318 213.313 46.6266 213.764 46.1396C214.215 45.6527 214.877 45.3053 215.751 45.0977C215.415 44.9544 215.121 44.7217 214.87 44.3994C214.62 44.07 214.494 43.7227 214.494 43.3574C214.494 42.8991 214.627 42.5195 214.892 42.2188C215.157 41.9108 215.54 41.61 216.041 41.3164C215.411 41.0443 214.91 40.6074 214.537 40.0059C214.172 39.4043 213.989 38.6953 213.989 37.8789C213.989 37.0052 214.179 36.264 214.559 35.6553C214.946 35.0394 215.504 34.5703 216.235 34.248C216.972 33.9258 217.867 33.7646 218.92 33.7646C219.142 33.7646 219.4 33.779 219.694 33.8076C219.987 33.8363 220.256 33.8685 220.499 33.9043C220.75 33.9401 220.918 33.9688 221.004 33.9902H225.194V35.6553L223.314 36.1387C223.486 36.4036 223.614 36.6865 223.7 36.9873C223.786 37.2881 223.829 37.6068 223.829 37.9434C223.829 39.2324 223.378 40.2386 222.476 40.9619C221.581 41.6781 220.335 42.0361 218.738 42.0361C218.358 42.0146 218 41.986 217.663 41.9502C217.499 42.0791 217.373 42.2152 217.287 42.3584C217.201 42.5016 217.158 42.652 217.158 42.8096C217.158 42.9671 217.223 43.0996 217.352 43.207C217.488 43.3073 217.688 43.3861 217.953 43.4434C218.225 43.4935 218.562 43.5186 218.963 43.5186H221.004C222.322 43.5186 223.324 43.8014 224.012 44.3672C224.707 44.9329 225.054 45.7637 225.054 46.8594C225.054 48.263 224.467 49.3516 223.292 50.125C222.125 50.8984 220.446 51.2852 218.254 51.2852ZM218.394 49.1475C219.174 49.1475 219.844 49.0723 220.403 48.9219C220.968 48.7786 221.402 48.571 221.702 48.2988C222.003 48.0339 222.154 47.7152 222.154 47.3428C222.154 47.042 222.064 46.8021 221.885 46.623C221.713 46.4512 221.448 46.3294 221.09 46.2578C220.739 46.1862 220.288 46.1504 219.737 46.1504H218.039C217.638 46.1504 217.277 46.2148 216.954 46.3438C216.639 46.4727 216.389 46.6517 216.202 46.8809C216.016 47.1172 215.923 47.3893 215.923 47.6973C215.923 48.1484 216.138 48.5029 216.568 48.7607C217.004 49.0186 217.613 49.1475 218.394 49.1475ZM218.92 40.0381C219.536 40.0381 219.987 39.8483 220.274 39.4688C220.56 39.0892 220.703 38.5736 220.703 37.9219C220.703 37.1986 220.553 36.6579 220.252 36.2998C219.959 35.9346 219.515 35.752 218.92 35.752C218.319 35.752 217.867 35.9346 217.567 36.2998C217.266 36.6579 217.115 37.1986 217.115 37.9219C217.115 38.5736 217.262 39.0892 217.556 39.4688C217.857 39.8483 218.311 40.0381 218.92 40.0381ZM230.813 33.7646C231.923 33.7646 232.879 33.9795 233.681 34.4092C234.483 34.8317 235.103 35.4476 235.54 36.2568C235.976 37.0661 236.195 38.0544 236.195 39.2217V40.8115H228.45C228.486 41.7354 228.761 42.4622 229.277 42.9922C229.8 43.515 230.523 43.7764 231.447 43.7764C232.213 43.7764 232.915 43.6976 233.552 43.54C234.19 43.3825 234.845 43.1462 235.518 42.8311V45.3662C234.924 45.6598 234.301 45.8747 233.649 46.0107C233.004 46.1468 232.22 46.2148 231.296 46.2148C230.093 46.2148 229.026 45.9928 228.095 45.5488C227.171 45.1048 226.445 44.4281 225.915 43.5186C225.392 42.609 225.13 41.4632 225.13 40.0811C225.13 38.6774 225.367 37.5101 225.839 36.5791C226.319 35.641 226.985 34.9391 227.837 34.4736C228.69 34.001 229.681 33.7646 230.813 33.7646ZM230.834 36.0957C230.197 36.0957 229.667 36.2998 229.245 36.708C228.829 37.1162 228.589 37.7572 228.525 38.6309H233.123C233.115 38.1439 233.026 37.7106 232.854 37.3311C232.689 36.9515 232.439 36.6507 232.102 36.4287C231.773 36.2067 231.35 36.0957 230.834 36.0957ZM251.643 33.7646C253.004 33.7646 254.032 34.1156 254.726 34.8174C255.428 35.512 255.779 36.6292 255.779 38.1689V46H252.492V38.9854C252.492 38.126 252.345 37.4779 252.052 37.041C251.758 36.6042 251.303 36.3857 250.687 36.3857C249.821 36.3857 249.205 36.6973 248.84 37.3203C248.474 37.9362 248.292 38.8206 248.292 39.9736V46H245.015V38.9854C245.015 38.4124 244.951 37.9326 244.822 37.5459C244.693 37.1592 244.496 36.8691 244.231 36.6758C243.966 36.4824 243.626 36.3857 243.211 36.3857C242.602 36.3857 242.122 36.5397 241.771 36.8477C241.428 37.1484 241.181 37.596 241.03 38.1904C240.887 38.7777 240.815 39.4974 240.815 40.3496V46H237.539V33.9902H240.042L240.482 35.5264H240.665C240.908 35.111 241.213 34.7744 241.578 34.5166C241.95 34.2588 242.359 34.069 242.803 33.9473C243.247 33.8255 243.698 33.7646 244.156 33.7646C245.037 33.7646 245.782 33.9079 246.39 34.1943C247.006 34.4808 247.479 34.9248 247.808 35.5264H248.098C248.457 34.9105 248.961 34.4629 249.613 34.1836C250.272 33.9043 250.949 33.7646 251.643 33.7646ZM262.784 33.7646C263.894 33.7646 264.85 33.9795 265.652 34.4092C266.455 34.8317 267.074 35.4476 267.511 36.2568C267.948 37.0661 268.166 38.0544 268.166 39.2217V40.8115H260.421C260.457 41.7354 260.733 42.4622 261.248 42.9922C261.771 43.515 262.494 43.7764 263.418 43.7764C264.184 43.7764 264.886 43.6976 265.524 43.54C266.161 43.3825 266.816 43.1462 267.489 42.8311V45.3662C266.895 45.6598 266.272 45.8747 265.62 46.0107C264.976 46.1468 264.192 46.2148 263.268 46.2148C262.065 46.2148 260.998 45.9928 260.067 45.5488C259.143 45.1048 258.416 44.4281 257.886 43.5186C257.363 42.609 257.102 41.4632 257.102 40.0811C257.102 38.6774 257.338 37.5101 257.811 36.5791C258.291 35.641 258.957 34.9391 259.809 34.4736C260.661 34.001 261.653 33.7646 262.784 33.7646ZM262.806 36.0957C262.168 36.0957 261.638 36.2998 261.216 36.708C260.801 37.1162 260.561 37.7572 260.496 38.6309H265.094C265.087 38.1439 264.997 37.7106 264.825 37.3311C264.661 36.9515 264.41 36.6507 264.073 36.4287C263.744 36.2067 263.321 36.0957 262.806 36.0957ZM276.332 33.7646C277.613 33.7646 278.645 34.1156 279.425 34.8174C280.206 35.512 280.596 36.6292 280.596 38.1689V46H277.32V38.9854C277.32 38.126 277.162 37.4779 276.847 37.041C276.539 36.6042 276.052 36.3857 275.386 36.3857C274.384 36.3857 273.7 36.7259 273.334 37.4062C272.969 38.0866 272.787 39.0677 272.787 40.3496V46H269.51V33.9902H272.013L272.454 35.5264H272.636C272.894 35.111 273.213 34.7744 273.592 34.5166C273.979 34.2588 274.405 34.069 274.871 33.9473C275.343 33.8255 275.83 33.7646 276.332 33.7646ZM287.709 43.6045C288.067 43.6045 288.414 43.5687 288.751 43.4971C289.095 43.4255 289.435 43.3359 289.771 43.2285V45.667C289.42 45.8245 288.984 45.9535 288.461 46.0537C287.945 46.1611 287.379 46.2148 286.763 46.2148C286.047 46.2148 285.403 46.1003 284.83 45.8711C284.264 45.6348 283.817 45.2301 283.487 44.6572C283.165 44.0771 283.004 43.2715 283.004 42.2402V36.4502H281.435V35.0645L283.24 33.9688L284.185 31.4336H286.28V33.9902H289.642V36.4502H286.28V42.2402C286.28 42.6986 286.409 43.0423 286.667 43.2715C286.932 43.4935 287.279 43.6045 287.709 43.6045Z" fill="#006341"/>
</svg>
